<?xml version="1.0" standalone="no"?>
<!DOCTYPE svg PUBLIC "-//W3C//DTD SVG 1.1//EN" "http://www.w3.org/Graphics/SVG/1.1/DTD/svg11.dtd" >
<svg xmlns="http://www.w3.org/2000/svg">
<metadata>
This is a custom SVG webfont generated by Font Squirrel.
Copyright   :  19992001 WolfBainX  Apostrophic Labs All rights reserved Visit wwwapsotrophiclabcom or email infoapostrophiclabcom for more info
Designer    : WolfBainX  Apostrophe
Foundry URL : wwwapostrophiclabcom
</metadata>
<defs>
<font id="KomikaTitle-PaintRegular" horiz-adv-x="1470" >
<font-face units-per-em="2048" ascent="1638" descent="-410" />
<missing-glyph horiz-adv-x="500" />
<glyph unicode="!" horiz-adv-x="806" d="M-76 147q0 -113 68.5 -172t167.5 -59h2q82 0 136 37t85 84t43 92t12 61q0 37 -14 80t-46 80t-81 61.5t-119 24.5q-53 0 -96 -20.5t-76 -53t-52.5 -76.5t-25.5 -89v-2q-2 -10 -3 -22t-1 -26zM68 614q0 -43 33.5 -81.5t82.5 -66.5t104.5 -44t98.5 -16q37 0 59.5 21.5 t34.5 72.5v-2q39 131 87 276.5t101.5 298t110 305t109.5 295.5l-2 -2q8 23 13 41.5t5 34.5q0 68 -74 123q-47 35 -111.5 63.5t-117.5 44.5h4q-35 14 -67 15q-43 0 -66.5 -23.5t-42.5 -75.5q-41 -117 -89 -271.5t-96 -320t-92 -326.5t-73 -290q-12 -47 -12 -72z" />
<glyph unicode="&#x22;" horiz-adv-x="1138" d="M219 1354q0 -90 146 -90q27 0 52 3t46 7h-2q45 6 79.5 29.5t63.5 60.5l2 2q23 35 52.5 83t58.5 105v-2q20 37 38.5 80t32 83t21.5 75t8 57v11q-2 31 -20.5 58.5t-45 51t-58 43t-62.5 35.5l2 -2q-43 25 -78 24q-33 0 -56.5 -18t-33.5 -61v2q-20 -63 -51 -144.5t-64 -163 t-64.5 -157.5t-54.5 -127q-8 -16 -10 -25.5t-2 -19.5zM645 1311q0 -53 51.5 -73.5t143.5 -20.5q57 0 105 16t91 59h2q29 31 64 77t69.5 99.5t65.5 107.5t51 101v-2q2 4 2 6q0 4 2 9q10 35 15.5 53t5.5 16v13q0 51 -50.5 104t-111.5 90l4 -2q-45 33 -84 33q-59 0 -92 -68 q-23 -45 -56.5 -105.5t-70.5 -125.5l-74 -131q-37 -66 -66.5 -120t-48 -91t-18.5 -45z" />
<glyph unicode="#" horiz-adv-x="1488" d="M-27 633q0 -39 20.5 -75t52.5 -63.5t68 -45t66 -19.5q-4 -18 -4 -35v-30q0 -41 15.5 -81t43 -72t64.5 -51.5t78 -19.5q35 0 60.5 41t45 99.5t33.5 119t27 101.5q43 10 83 13t87 13q-8 -39 -15.5 -71.5t-7.5 -67.5q2 -33 16.5 -68.5t40 -66.5t60.5 -50.5t78 -19.5 q31 0 50 21.5t33.5 56.5t27 78t26.5 88v-2q12 35 24.5 76t26.5 86l51 4q45 4 86 8t72 12.5t49.5 23.5t18.5 44q0 20 -23 61h2q-31 55 -63.5 84t-98.5 37q18 51 37 101.5t35 99.5q49 4 101.5 8t99.5 8h2q49 6 73.5 20.5t24.5 49.5q0 20 -22 59l2 -2q-16 29 -30.5 51.5t-34 39 t-45.5 26.5t-62 16q27 47 43 100.5t16 94.5q0 35 -17.5 76t-45 75.5t-64.5 58t-74 23.5q-35 0 -65.5 -42t-59 -107.5t-56.5 -143t-54 -147.5q-35 -2 -74 -7t-78 -5q8 18 14.5 36.5t10.5 34.5v-2q20 47 20 95q0 33 -18.5 74.5t-47 76.5t-64.5 59.5t-72 24.5q-37 0 -68 -43 t-59.5 -109.5t-54 -145.5t-50.5 -150q-74 -16 -138.5 -24.5t-127.5 -27.5h2q-47 -10 -68.5 -25t-21.5 -48q0 -16 7 -31.5t17 -34.5l-2 2q37 -68 80 -105.5t123 -37.5h18q-14 -47 -25 -90t-28 -88q-23 -4 -42 -8.5t-42 -8.5l2 2q-45 -10 -84 -19t-66.5 -19.5t-44 -26.5 t-16.5 -43zM647 821q14 43 27.5 86t30.5 90q37 6 74.5 10.5t76.5 10.5h6q-14 -43 -27.5 -85t-29.5 -91q-37 -4 -77 -9.5t-81 -11.5z" />
<glyph unicode="$" horiz-adv-x="1126" d="M-43 553q0 -47 59 -125l-2 2q41 -53 84 -90t86 -66q-10 -41 -16 -82.5t-6 -89.5q0 -43 11 -90t33.5 -88t57.5 -67.5t82 -26.5q29 0 48.5 18.5t31.5 61.5q10 53 31.5 124.5t44.5 145.5h24q125 0 208 46t133.5 108.5t70.5 124t20 92.5q0 76 -42 133t-103 107.5t-130 96.5 t-122 99h2q-33 39 -33 82q0 39 17.5 80t42 74.5t52.5 57.5t50 30v-2q0 -23 -5 -49l-10 -54q-5 -27 -10 -49t-5 -35q-2 -8 -3.5 -17t-1.5 -24q0 -86 53.5 -138t135.5 -89q20 -6 39 -6q45 0 78.5 41t56 102.5t37 133t18.5 135.5v-3q2 10 2 21v25q0 45 -17.5 95t-70.5 103h2 q-16 12 -29.5 25.5t-29.5 23.5q10 31 18 61.5t17 59.5l6 25v-2q8 23 10 43t2 41q0 68 -31.5 120t-85.5 91h2q-35 29 -73 28q-41 0 -65.5 -29.5t-44 -78.5t-41 -113.5t-56.5 -134.5q-33 -4 -61.5 -15.5t-53.5 -25.5q-78 -45 -145.5 -111.5t-118.5 -142.5t-81 -153.5 t-30 -141.5q0 -82 31 -147.5t80 -118.5t109.5 -98t119.5 -84q49 -35 85 -58.5t46 -36.5q-6 -4 -16 -4h-20q-49 0 -118 27t-147 80l4 -2q-27 23 -66.5 36t-82.5 13q-33 0 -63.5 -8t-57.5 -27h2q-49 -29 -49 -82v-8z" />
<glyph unicode="%" horiz-adv-x="1845" d="M137 1210q0 -111 38 -181.5t93.5 -111t119 -57t112.5 -16.5q80 0 143.5 33.5t112.5 91.5q-76 -92 -146.5 -182.5t-133 -171t-115 -150.5t-89.5 -121q-33 -47 -46 -86t-13 -74q0 -29 14.5 -61.5t36 -62t49 -49t56.5 -19.5q20 0 37.5 11t39.5 34q55 78 143.5 191.5 t195 244.5t224 270.5t229.5 270.5t211 243.5t169 190.5v2q66 74 65 154q0 31 -12 67.5t-33.5 68.5t-48 53.5t-57.5 21.5q-41 0 -78 -39q-47 -49 -102.5 -86t-110.5 -64t-107.5 -40t-91.5 -13q-53 0 -86.5 19.5t-57.5 47t-40 57t-35 50.5q-35 31 -82 53.5t-110 36.5h2 q-12 4 -23 4h-16q-100 0 -184 -64.5t-144.5 -160.5t-94.5 -206t-34 -200zM444 1137q0 41 12.5 100t35.5 129v-2q12 35 29.5 70.5t37 66.5t36.5 53.5t30 28.5v-33q0 -10 -1 -20t-1 -21q-4 -41 -18.5 -93t-24.5 -109l2 4q-35 -109 -70 -165t-59 -56q-2 0 -4 2q-5 0 -5 45z M612 1597l13 -8v-2q-9 4 -13 10zM772 991q59 78 94 175.5t45 189.5q41 -8 86 -8q41 0 78 6q-74 -88 -150.5 -179.5t-152.5 -183.5zM903 338q0 -94 30 -169t95 -116v2q39 -29 84 -43t92 -22h-2q14 -4 29 -4h31q74 0 133 30.5t106 82t82 117t57.5 136t34 141t11.5 130.5 q0 76 -16.5 141t-76.5 125q-16 12 -42.5 28.5t-59.5 30t-65.5 23.5t-59.5 10q-72 0 -134.5 -30.5t-113.5 -83t-91 -119t-67.5 -138t-42 -142.5t-14.5 -130zM1198 270v27q4 43 23.5 107.5t47 129t59.5 116.5t63 71v-29q0 -74 -22.5 -155.5t-53.5 -150.5t-61.5 -114t-45.5 -47 q-10 4 -10 45zM1384 733l11 -8h-2z" />
<glyph unicode="&#x26;" horiz-adv-x="1611" d="M-63 422q0 -78 39.5 -164t134.5 -164q94 -78 185 -105.5t177 -29.5q63 0 121.5 13.5t112.5 29.5h-2q80 18 153.5 49t140.5 72l31 -31q57 -51 94 -70.5t84 -19.5q63 0 104.5 23.5t82.5 52.5l-2 -2q29 20 44 39.5t15 46.5q0 14 -11 34.5t-28.5 42t-38.5 44.5l-41 45v-2 l-35 36q27 20 53.5 56.5t47 78.5t33 84t12.5 78q0 27 -7 55.5t-20.5 52.5t-34 38t-47.5 14t-59.5 -18.5t-68.5 -45t-71.5 -57t-68.5 -55.5q-35 47 -67.5 92t-65.5 94q102 59 199.5 125t162.5 136h-2q143 150 144 317q0 172 -146 334q-86 98 -165.5 133t-165.5 35 t-176.5 -22.5t-173.5 -65.5t-152.5 -104.5t-114.5 -137.5v2q-82 -133 -82 -264q0 -33 5 -73t17.5 -84t31 -88t44.5 -83q2 -8 11 -28q-96 -57 -176 -120t-137.5 -130.5t-89 -140t-31.5 -148.5zM397 365v4q4 45 48 106.5t145 138.5q35 -47 66.5 -91t68.5 -91 q-92 -45 -165 -68.5t-122 -23.5q-25 0 -33 3.5t-8 21.5zM727 1262q0 43 23.5 86t61.5 79.5t88 65.5t106 45q18 -31 18 -63q0 -49 -24.5 -93.5t-63.5 -82t-90 -70.5t-103 -62q-10 25 -13 48.5t-3 46.5z" />
<glyph unicode="'" horiz-adv-x="614" d="M176 1298q0 -57 53.5 -73.5t130.5 -16.5q57 0 98.5 12.5t88.5 63.5l-2 -2q27 31 61.5 77t68.5 98t63.5 105.5t47.5 100.5v-2q0 41 11.5 62.5t11.5 19.5v10q0 23 -20.5 60.5t-54.5 74.5t-75 63.5t-79 26.5q-31 0 -51.5 -16t-36.5 -51q-29 -57 -69 -133t-81 -153 t-80 -147.5t-65 -119.5v2q-21 -29 -21 -62z" />
<glyph unicode="(" horiz-adv-x="720" d="M80 682q0 -147 25.5 -294.5t82.5 -274.5q25 -55 59 -92t70.5 -59.5t75.5 -32t78 -9.5h25q47 8 66.5 22.5t19.5 49.5q0 16 -13 47q-45 111 -64.5 228.5t-19.5 240.5q0 135 22.5 273.5t62.5 271.5t96.5 257t124.5 232q55 88 55 187q0 37 -14.5 90t-39 102t-58.5 84t-72 35 q-47 0 -91 -53q-117 -133 -208 -290t-154.5 -325t-96 -343t-32.5 -347z" />
<glyph unicode=")" horiz-adv-x="817" d="M-168 -10q0 -45 38 -60.5t105 -15.5q78 0 144.5 22.5t120.5 73.5q117 113 213 270.5t165.5 340t107.5 378t38 381.5q0 135 -19 252q-25 131 -109.5 227.5t-242.5 125.5h2q-25 6 -49 6q-49 0 -67.5 -26t-18.5 -67q0 -29 6 -53q20 -98 31.5 -199.5t11.5 -205.5 q0 -190 -31.5 -388t-90 -380.5t-140.5 -340t-184 -270.5q-31 -36 -31 -71z" />
<glyph unicode="*" horiz-adv-x="1468" d="M102 1096q0 -33 24 -68t60.5 -63.5t79.5 -47t80 -18.5q47 0 102.5 19.5t104.5 35.5l-16 -65q-8 -33 -9 -68q0 -80 38 -124t98 -72q43 -23 71 -23q33 0 59.5 48t45 106.5t29 107.5t10.5 54q23 -20 47 -40t53 -38h-2q98 -80 184 -80q33 0 70 9t66.5 25.5t49 37t19.5 42.5 q0 27 -34 64t-76 71.5t-80.5 63.5t-49.5 37q59 16 120 29.5t126 25.5q82 12 82 78q0 29 -20 62q-39 59 -90.5 92t-139.5 33q-37 0 -69.5 -4.5t-67.5 -10.5h2q-6 -2 -12 -2t-15 -2q27 66 45.5 115t18.5 90q0 66 -35 116t-94 91q-18 12 -34.5 20t-37.5 8q-35 0 -65.5 -41 t-55 -98t-44 -117.5t-31.5 -97.5q-18 12 -36 34.5t-42 45.5v-2q-47 47 -96.5 68.5t-102.5 21.5q-29 0 -63.5 -7t-65.5 -21.5t-51.5 -36t-20.5 -48.5q0 -29 29 -66.5t68 -77.5t80 -78t67 -62q-90 -25 -162.5 -48.5t-132.5 -45.5h2q-43 -14 -61.5 -31.5t-18.5 -46.5z" />
<glyph unicode="+" horiz-adv-x="1509" d="M-10 915q0 -33 19.5 -81t51 -92t71.5 -75.5t79 -31.5h22q12 0 29 4q35 4 70 11t69 12q-10 -63 -22 -111.5t-12 -79.5q0 -39 19.5 -69.5t53.5 -53.5h-2q51 -35 111.5 -66.5t99.5 -31.5q33 0 56.5 41t44 107.5t40 147.5t46.5 161q111 12 216 14t216 8q53 0 76.5 16.5 t23.5 57.5q0 2 -8 46t-31.5 95t-64.5 94t-109 45q-25 2 -55 2h-60h-79q14 29 24 57.5t25 57.5v-2q20 39 20 72q0 29 -12 49t-35 45v-2q-16 18 -45 40.5t-61.5 42t-65.5 33t-53 13.5q-47 0 -81 -37t-61.5 -97.5t-51 -137t-50.5 -156.5q-121 -8 -226.5 -20.5t-183.5 -28.5 q-41 -4 -77.5 -28t-36.5 -71z" />
<glyph unicode="," horiz-adv-x="608" d="M-238 -207q0 -29 22.5 -50.5t58.5 -35.5t77 -20t78 -6h14q41 4 71 17t67 52q31 31 75.5 83t87.5 108.5t74 109.5t31 86t-20.5 62.5t-51.5 55.5t-67.5 48.5t-67.5 40.5l2 -2q-41 25 -74 25q-29 0 -53.5 -15.5t-42.5 -50.5q-51 -111 -123 -227.5t-137 -220.5 q-21 -37 -21 -60z" />
<glyph unicode="-" horiz-adv-x="1202" d="M-131 1012q0 -41 27.5 -96.5t68.5 -105.5t87 -85t83 -35q20 0 45 8q147 35 317.5 53.5t336.5 28.5q53 2 77.5 17.5t24.5 56.5q0 -2 -5 20.5t-16.5 57.5t-30 76t-46 76.5t-65.5 60t-89 24.5q-92 0 -193.5 -6t-198.5 -15t-184.5 -21.5t-148.5 -24.5q-90 -16 -90 -90z" />
<glyph unicode="." horiz-adv-x="618" d="M-41 150q0 -92 58.5 -146.5t146.5 -54.5h14q76 0 123 31.5t74.5 70.5t39 75t13.5 46q0 4 1 8t1 8v11q0 31 -13.5 66.5t-42 66t-71.5 50t-104 19.5q-49 0 -90 -17t-72 -46t-50.5 -67t-25.5 -78q-2 -10 -2 -21v-22z" />
<glyph unicode="/" horiz-adv-x="1093" d="M-117 123q2 -29 13.5 -52.5t40.5 -45.5q29 -18 57.5 -40t75.5 -55h-2q39 -25 77 -24q33 0 54.5 18.5t40.5 52.5l-2 -2q51 88 128.5 218.5t170 281t190.5 310t190.5 307t172 269.5t131.5 200v-2q37 51 36 92q0 49 -51 100q-41 39 -82 71.5t-84 61.5q-47 31 -86 31 q-61 0 -110 -70l2 2q-57 -78 -138 -207t-172.5 -283.5t-185.5 -322.5t-179 -321.5t-152.5 -279.5t-104.5 -197q-14 -29 -22.5 -56.5t-8.5 -50.5v-6z" />
<glyph unicode="0" horiz-adv-x="1415" d="M2 575q0 -78 9 -153.5t30 -149.5q35 -92 105.5 -151.5t153.5 -93t170 -47t157 -13.5q129 0 237.5 64.5t194.5 172t150.5 246t106.5 285t63.5 289.5t21.5 262q0 63 -5 122.5t-22.5 114t-48.5 104.5t-82 93v2q-31 25 -79 50.5t-104 45t-116.5 32t-118.5 12.5 q-72 0 -148.5 -25t-137.5 -70q-133 -100 -233.5 -241.5t-168 -301t-101.5 -327.5t-34 -322zM473 520q0 82 20.5 183.5t54.5 206t78 203.5t91 177t96 125t90 47h4q14 -4 19.5 -36.5t5.5 -86.5q0 -115 -23.5 -245.5t-58.5 -247.5v2q-31 -109 -71 -202t-82 -160.5t-84 -105.5 t-76 -38q-12 0 -17 2h4q-29 10 -40 57t-11 119z" />
<glyph unicode="1" horiz-adv-x="772" d="M-10 174q0 -55 29.5 -92t71.5 -58.5t85 -32.5t70 -16q37 -12 59 -12q37 0 53.5 17.5t30.5 56.5q23 100 55.5 226t69.5 264.5t78 282.5t81 280.5t77.5 257t70.5 213.5l-2 -2q10 23 14.5 38t4.5 31q0 43 -42 84t-99.5 74t-115 52.5t-87.5 19.5q-31 0 -71 -31t-80 -79 t-78 -105.5t-64 -110.5h2q-12 -23 -18.5 -41t-6.5 -37q0 -37 19.5 -59.5t64.5 -46.5q-41 -137 -83 -296t-79 -311.5t-64.5 -283.5t-39.5 -213l2 4q-6 -23 -7 -40.5t-1 -33.5z" />
<glyph unicode="2" horiz-adv-x="1284" d="M-129 285q0 -35 18.5 -74t47 -78t61.5 -74.5t63 -62.5l-4 2q23 -25 48.5 -40t74.5 -15q16 0 64.5 7t118 19.5t152.5 25.5t169 26.5t168 23.5t147 14q53 8 77 22.5t24 61.5q0 16 -7.5 44t-19.5 57.5t-26.5 59.5t-28.5 52v-2q-29 49 -67 70.5t-91 21.5h-8q-39 -2 -87 -5 t-101 -7q86 70 170 149t159.5 159.5t139 159.5t106.5 151q59 94 97 182t38 180q0 51 -27.5 128t-87 147.5t-153.5 122t-229 51.5q-90 0 -180.5 -31t-175.5 -84t-160.5 -129t-137.5 -164q-33 -51 -47 -88t-14 -65q0 -39 23.5 -65t60.5 -40t81 -20.5t85 -6.5q55 0 114.5 16.5 t112.5 55.5q41 37 81 72t77 61.5t67.5 43t53.5 16.5h2q-6 -35 -52.5 -104.5t-120 -159t-171 -191.5t-206 -205.5t-221 -202t-217.5 -176.5q-35 -29 -48 -56t-13 -56z" />
<glyph unicode="3" horiz-adv-x="1345" d="M-127 338q0 -29 19.5 -64.5t66.5 -83.5q68 -72 138.5 -118.5t142 -75.5t142.5 -41t138 -12q90 0 173 13t159 45t144.5 84t131.5 130q111 139 111 305q0 88 -37 171t-115 159v-2q-23 23 -48 39t-52 31q145 74 236 153q61 53 100 135t39 180q0 68 -24.5 146t-84.5 154 q-90 113 -185 150.5t-181 37.5q-90 0 -177 -26.5t-166 -68.5t-146.5 -95.5t-114.5 -108.5q-16 -23 -26.5 -43.5t-10.5 -42.5q0 -37 25.5 -68.5t66.5 -56.5t92 -38t105 -13q100 0 174 49h-2q53 33 110 61.5t96 28.5h11q4 -4 4 -8q0 -27 -37 -66t-116 -87t-198.5 -101 t-285.5 -109q-80 -29 -80 -98q0 -37 20 -76v2q49 -100 130 -156.5t176 -56.5h20q10 0 21 2q23 2 42 3t35 1q18 0 38 -3t35 -12t24.5 -25.5t9.5 -45.5q0 -39 -19.5 -84t-62.5 -92h2q-45 -45 -92 -68.5t-103 -23.5q-96 0 -237 78h2q-72 47 -168 47q-82 0 -150 -43l5 2 q-29 -16 -47.5 -37.5t-18.5 -56.5z" />
<glyph unicode="4" d="M-35 805q0 -35 17.5 -74t45 -77t60.5 -74.5t64 -67.5h-2q29 -33 59.5 -45t64.5 -12q20 0 36 2t32 6h-2q61 10 123.5 18t130.5 17l35 4q-35 -123 -56.5 -211t-21.5 -125q0 -51 37 -93t88 -71t105.5 -45t90.5 -16q41 0 60.5 21.5t34.5 68.5q29 111 66.5 240.5t84.5 277.5 q51 2 100.5 3t87 9t61.5 27.5t24 60.5q0 23 -7.5 44.5t-11.5 41.5q-6 27 -15 56.5t-24.5 57.5t-37 51.5t-54.5 35.5q2 4 2 6t2 6q53 164 101.5 309.5t89.5 255.5l-2 -2q18 45 18 72q0 35 -17.5 59.5t-58.5 53.5q-51 31 -113.5 63.5t-123 60t-109.5 46t-72 18.5 q-31 0 -57.5 -11t-62.5 -40q-92 -78 -208 -191.5t-231.5 -239.5t-219 -251t-171.5 -227l2 2q-45 -64 -45 -121zM498 907q88 100 186 203.5t197 198.5q-18 -57 -37 -115.5t-39 -118.5v2q-12 -37 -24.5 -74.5t-22.5 -76.5q-68 -4 -134.5 -9.5t-125.5 -9.5z" />
<glyph unicode="5" horiz-adv-x="1220" d="M-86 348q2 -53 78 -145l-2 2q39 -66 91 -109t112.5 -69.5t127 -38t136.5 -11.5h8q125 2 222 37t169 86.5t118 109.5t70 107q92 184 93 330q0 100 -40 177t-105.5 132.5t-150.5 87t-175 41.5q29 70 62.5 142.5t68.5 142.5q27 4 53.5 7t54.5 7h-2q98 10 186.5 21.5 t172.5 21.5q59 8 85.5 25.5t26.5 65.5q0 12 -6 47l2 -2q-10 49 -15 95t-28 95l2 -4q-41 100 -155 100h-23q-135 -4 -275.5 -14t-289.5 -33q-121 -20 -178 -125q-94 -193 -164 -356.5t-113 -294.5v2q-8 -23 -11 -44t-3 -40q0 -35 12 -60.5t30.5 -45t40 -33.5t38.5 -27 q29 -18 55 -43h-2q23 -23 41 -32t47 -9q14 0 38.5 6.5t55.5 13.5t64.5 13t70.5 6q27 0 42.5 -1t23.5 -9t9 -24.5t1 -47.5q0 -41 -15.5 -92t-42 -96t-64.5 -77t-83 -32q-35 0 -77 18.5t-97 61.5q-31 25 -76 38t-94 13q-37 0 -76 -9t-70.5 -25.5t-53 -43t-21.5 -59.5z" />
<glyph unicode="6" horiz-adv-x="1257" d="M-39 442q0 -90 36 -177t107.5 -156.5t179 -111.5t253.5 -42q80 0 141 20.5t110 55.5q66 45 130.5 118.5t115.5 166t83 200t32 217.5v15q0 55 -12.5 106t-41 96t-79.5 84t-127 74q-68 27 -139 37q90 123 196.5 236.5t231.5 213.5q29 25 41 47.5t12 45.5q0 59 -92 107 t-234 79l2 -2q-23 6 -38 8t-27 2q-41 0 -65.5 -15.5t-63.5 -43.5q-203 -166 -341.5 -346.5t-225.5 -354.5t-130 -328.5t-51 -267.5v2q-4 -20 -4 -43v-43zM397 403q0 41 17.5 103.5t46.5 140.5q49 66 103 103.5t98 37.5q25 0 36 -16t11 -43q0 -61 -30 -131t-71 -128t-85 -97 t-72 -39q-54 -1 -54 69z" />
<glyph unicode="7" horiz-adv-x="1325" d="M102 195q0 -47 37 -94.5t85 -86.5t97.5 -62.5t73.5 -23.5q53 0 90 70l-2 -2q94 172 207 356.5t231.5 363.5t239.5 348t234 310q49 61 49 125q0 53 -37 107l2 -4q-25 41 -51.5 81.5t-73.5 98.5l4 -4q-39 59 -83 75.5t-109 16.5q-96 -4 -208 -11.5t-223.5 -18.5t-216 -27.5 t-184.5 -36.5q-35 -8 -57.5 -23.5t-22.5 -52.5q0 -16 10.5 -30.5t10.5 -31.5l-2 2q0 -27 18.5 -60.5t41 -63t38.5 -48t14 -14.5q35 -37 74 -53.5t80 -16.5q35 0 64.5 6.5t70.5 10.5q53 6 115.5 14t124.5 17q-199 -266 -385.5 -558t-325.5 -573q-14 -33 -22.5 -58t-8.5 -48z " />
<glyph unicode="8" horiz-adv-x="1353" d="M-55 397q0 -86 40 -165.5t115.5 -141t185 -97.5t249.5 -36q137 0 274 55.5t244 188.5q70 86 109.5 176t41.5 178q0 86 -43 170t-145 168q106 63 189 126.5t134 141.5v-2q43 59 62.5 118.5t19.5 119.5q0 86 -45 171t-118.5 152.5t-165 109.5t-183.5 42q-90 0 -182 -36 t-177 -92t-155.5 -128t-118.5 -141q-76 -119 -75 -236q0 -162 141 -289q-80 -53 -152.5 -112.5t-127 -127t-86 -146.5t-31.5 -167zM408 371q0 35 21.5 75.5t58 83.5t85 83t99.5 75q37 -47 37 -88q0 -37 -17.5 -75t-44.5 -79h2q-45 -66 -94 -100.5t-90 -34.5q-16 0 -23 2h2 q-16 6 -26 20.5t-10 37.5zM674 1188q0 63 61.5 140t184.5 159q35 -35 34 -68q0 -53 -69.5 -118.5t-202.5 -151.5q-8 16 -8 39z" />
<glyph unicode="9" horiz-adv-x="1251" d="M10 168q0 -49 43 -89t96.5 -67.5t101.5 -42t58 -14.5q35 0 63.5 14.5t65.5 36.5q117 80 226.5 183.5t206 220t175 241.5t136 246t89.5 234.5t34 207.5v11q0 92 -25 162.5t-71 126t-114.5 100.5t-156.5 84q-129 51 -229 51q-92 0 -163 -29.5t-126 -64.5 q-72 -51 -136.5 -131t-113.5 -177.5t-79 -204t-30 -210.5q0 -20 1 -39t4 -35v2q10 -135 78.5 -224t226.5 -147l-2 2q12 -8 23 -11t22 -5q-158 -190 -353 -344q-29 -23 -40 -44t-11 -44zM518 1014q0 41 13.5 93t35.5 110v-3q23 51 51.5 98.5t59.5 83.5t60.5 57.5t54.5 21.5 q2 0 2 -2h4q20 -8 20 -62q0 -72 -40 -186.5t-113 -253.5q-25 -23 -45.5 -32t-38.5 -9q-27 0 -45.5 14.5t-18.5 69.5z" />
<glyph unicode=":" horiz-adv-x="722" d="M-76 168q0 -92 54.5 -148.5t140.5 -72.5h-2q25 -6 57 -6q109 0 173.5 72.5t64.5 185.5q0 37 -11.5 80t-39 79.5t-74.5 61t-121 24.5q-94 0 -154.5 -59t-79.5 -145l2 2q-6 -23 -8 -40.5t-2 -33.5zM121 889q0 -53 18.5 -96t49 -74t72.5 -47.5t91 -16.5h4q86 0 138.5 38 t80 86t37 91t9.5 54v18q0 35 -14.5 74t-44.5 70.5t-76 53t-109 21.5q-49 0 -92 -18.5t-77 -50t-55.5 -73.5t-29.5 -87q-2 -10 -2 -23v-20z" />
<glyph unicode=";" horiz-adv-x="757" d="M-180 -264q0 -78 82 -111l-2 2q41 -18 83 -30.5t83 -12.5h18q43 6 74.5 26.5t60.5 67.5l-2 -2q20 31 46 78t51.5 101.5t50 111t41.5 105.5l-3 -2q16 39 17 73q0 57 -37 109.5t-107 103.5h3q-47 41 -92.5 70t-82.5 29q-66 0 -86 -86q-41 -154 -91 -299.5t-97 -278.5 q-10 -35 -10 -55zM-18 1122q4 -72 27.5 -130t60 -101t83 -66.5t97.5 -23.5h4q53 0 91 20.5t63.5 50t41 66.5t22.5 68.5t9 55t2 28.5q0 43 -13 98t-46 104t-86 83t-133 34q-49 0 -91 -23.5t-71 -62.5t-45 -90t-16 -105v-6z" />
<glyph unicode="&#x3c;" horiz-adv-x="1050" d="M39 768q4 -20 17.5 -38.5t35.5 -29.5q147 -66 292.5 -129t274.5 -137h-2q20 -12 37 -19t35 -7q27 0 47.5 18t34.5 48t24.5 67t18.5 75l-2 -2q4 12 4 19v12q0 39 -22.5 68.5t-62.5 56.5t-93 50.5t-113 51.5q92 41 178 77t177 69h-2q78 25 77 78q0 33 -26.5 73.5 t-64.5 75.5t-78 58.5t-64 23.5q-29 0 -60.5 -8t-74.5 -25h4q-51 -14 -112.5 -37.5t-122 -51t-117 -55.5t-95.5 -50l6 2q-35 -12 -57 -35t-36.5 -51.5t-22.5 -60t-15 -62.5l-10 -51v2q-8 -16 -9 -36t-1 -40z" />
<glyph unicode="=" horiz-adv-x="1341" d="M39 686q0 -35 25.5 -89t62.5 -105h-2q23 -35 51.5 -50.5t69.5 -15.5q12 0 22.5 1t22.5 3h2q201 35 403.5 54.5t411.5 27.5q53 2 77.5 17.5t24.5 56.5q0 25 -17 80t-48 100l2 -6q-35 86 -148 86h-69q-92 0 -193.5 -4t-205 -12.5t-203 -20.5t-187.5 -27q-45 -8 -73.5 -31.5 t-28.5 -64.5zM121 1149q0 -33 21.5 -86t50.5 -98h-3q23 -43 50.5 -58.5t74.5 -15.5h21q10 0 20 2q147 18 296 25.5t298 7.5q61 0 125 -2t125 -2q88 0 88 75q0 41 -13 76t-28 72v-2q-16 57 -65 84.5t-118 39t-153 10.5t-166 -1q-135 0 -269 -6t-245 -21q-45 -4 -77.5 -28.5 t-32.5 -71.5z" />
<glyph unicode="&#x3e;" horiz-adv-x="1124" d="M39 692q0 -20 17.5 -49t41 -57.5t50 -55t45.5 -41.5q45 -37 88 -36q20 0 35.5 5t33.5 15h-2q117 51 241 93t281 89q45 14 74 38t49.5 57.5t35.5 75.5t32 94q10 29 10 55q0 39 -19.5 57.5t-54.5 38.5q-80 41 -167 82t-172 78t-162.5 66.5t-137.5 50.5l2 -2q-16 6 -29.5 8 t-23.5 2q-31 0 -51 -17.5t-32.5 -46t-17.5 -63.5t-5 -70q0 -84 25.5 -119.5t84.5 -54.5h-2q90 -33 180 -72q-78 -25 -157.5 -48t-145 -50t-106.5 -57.5t-41 -65.5z" />
<glyph unicode="?" horiz-adv-x="1396" d="M109 143q0 -57 21.5 -100t58 -71.5t87 -43t105.5 -14.5q57 0 100 16.5t74 44t51.5 63.5t30.5 75q0 4 2 8l2 57q0 31 -12.5 71t-43 74.5t-85 59.5t-135.5 25q-53 0 -96.5 -16.5t-75 -45.5t-53 -66.5t-27.5 -80.5v2q-4 -14 -4 -29v-29zM145 1397q0 -37 26 -63.5t63.5 -43 t81.5 -25t79 -8.5q80 0 156 43t145.5 94.5t133 94.5t118.5 43q16 0 28.5 -7t14.5 -28q0 -53 -57 -121.5t-205 -161.5q-63 -39 -136 -89t-138.5 -116.5t-116.5 -152.5t-70 -197q-4 -16 -6 -30.5t-2 -32.5q0 -41 15.5 -68.5t56.5 -52.5l2 -2q51 -29 115.5 -56.5t115.5 -27.5 q45 0 69.5 20.5t29.5 69.5q29 129 99.5 209t156.5 138.5t174 110.5t153 126q57 63 100.5 150t43.5 192q0 72 -26 148.5t-87 158.5v-2q-29 41 -71 79t-95 67.5t-117.5 47t-136.5 17.5q-178 0 -342 -97.5t-299 -275.5q-39 -51 -55.5 -86.5t-16.5 -64.5z" />
<glyph unicode="@" horiz-adv-x="1863" d="M45 805q0 -158 45 -283t119 -218t168 -155.5t190 -95.5h-2q80 -29 149.5 -41t131.5 -12q41 0 83 5t74.5 16.5t53 31t20.5 49.5q0 12 -5 27.5t-19 30.5h2q-47 55 -102.5 78.5t-114 33t-117.5 11.5t-113 18q-37 10 -80 40t-78.5 80t-60 120.5t-24.5 165.5q0 63 13 138 t46 167q51 143 128 250.5t166 178t185 105.5t189 35q113 0 187.5 -39t118.5 -99.5t61.5 -134t17.5 -143.5q0 -82 -14.5 -159.5t-32.5 -139.5v2q-59 -164 -119 -251t-94 -87h-3q4 0 5 9v10q4 43 22.5 111.5t41 139t43 133t28.5 93.5q14 37 14 72q0 37 -19.5 64.5t-66.5 58.5 q-23 86 -91.5 138t-156.5 52q-74 0 -150.5 -36t-146 -98.5t-129 -150.5t-98.5 -192q-45 -121 -45 -217q0 -98 38 -163t93 -103.5t118.5 -55t112.5 -16.5q96 0 166 45q57 -76 160 -102h-4q63 -25 135 -25q61 0 123.5 21.5t122 72.5t113 134t98.5 206q66 172 65 348 q0 109 -27.5 211.5t-84 191.5t-144.5 160.5t-211 116.5l2 -2q-80 35 -164.5 50.5t-172.5 15.5q-168 0 -338 -64.5t-308.5 -191.5t-225.5 -317.5t-87 -444.5zM782 664q0 80 37 169t86 163.5t98.5 126t73.5 57.5q2 -4 3 -9.5t5 -11.5q-37 -115 -76.5 -213t-76.5 -172t-70 -116 t-57 -42h-2q-21 5 -21 48z" />
<glyph unicode="A" horiz-adv-x="1490" d="M-150 172q0 -33 16.5 -58.5t42 -47t58.5 -40t66 -34.5l24 -12q39 -16 72 -17q37 0 67.5 37t61.5 93.5t60.5 123t62.5 123.5q102 27 236.5 48.5t273.5 41.5l4 -41q0 -133 6 -233q4 -82 27.5 -116t87.5 -54l-2 2q53 -23 102 -27t107 -4q76 0 100.5 24.5t24.5 90.5 q6 197 14 415t19.5 426.5t24.5 395t30 321.5v-2q2 10 2 21v22q0 53 -22.5 87t-86.5 57l-37 10q-72 25 -167 48t-236 23q-84 0 -132 -35.5t-83 -88.5q-92 -143 -202 -336t-219.5 -397.5t-208.5 -402.5t-169 -353q-14 -35 -19.5 -61.5t-5.5 -49.5zM649 836q72 131 142.5 252.5 t134.5 230.5q-8 -111 -14.5 -225.5t-12.5 -231.5q-63 -4 -125 -10t-125 -16z" />
<glyph unicode="B" horiz-adv-x="1441" d="M-43 307q0 -47 16.5 -76.5t44.5 -68.5l-2 2q47 -70 105.5 -112t118.5 -70q37 -27 67.5 -39.5t67.5 -12.5q49 0 123 25h-2q78 23 166 55.5t175 73.5t165.5 90t136.5 105h-2q82 70 124 141.5t42 169.5q0 82 -39 167t-103 138q47 31 87 61.5t79 61.5q86 74 146.5 170 t60.5 207q0 59 -14.5 113.5t-39 102.5t-55 90t-63.5 79q-55 59 -155.5 85.5t-217.5 26.5q-90 0 -189.5 -14t-195.5 -38.5t-187 -57.5t-165 -70q-23 -158 -60.5 -332t-78.5 -347t-81 -338t-65 -306q-4 -23 -7 -42.5t-3 -39.5zM430 399q20 66 39.5 129.5t40.5 135.5 q113 37 190 36q53 0 82 -10t33 -26q0 -31 -28.5 -66t-79 -69.5t-121 -68.5t-156.5 -61zM651 1110q6 20 17 45q20 66 39.5 126t40.5 116q80 35 147.5 51t116.5 16q70 0 69 -16q0 -27 -29.5 -68t-86 -88t-136.5 -95t-178 -87z" />
<glyph unicode="C" horiz-adv-x="1327" d="M-53 522q0 -80 11 -152.5t36 -131.5v4q12 -37 35.5 -74t53.5 -67.5t62.5 -52t63.5 -30.5h-2q59 -23 133 -47t166 -34h-2q10 -2 22 -3h29q197 0 338 106.5t225 278.5q16 35 28.5 67t12.5 60q0 41 -23.5 71t-76.5 46q-33 10 -62.5 15.5t-58.5 5.5q-133 0 -236 -107 q-141 -154 -204 -153h-9q-25 10 -35 50t-10 99q0 90 22.5 209t63.5 236q33 90 82.5 191t101.5 187t101 144.5t80 60.5q10 -8 14 -27.5t4 -41.5q0 -31 -3 -71t-3 -79q6 -57 22.5 -102t47.5 -79t78 -57.5t116 -37.5q14 -4 27 -5h23q53 0 70.5 19.5t29.5 54.5q2 4 6 8 q14 37 25.5 85.5t19.5 99.5t12.5 103t4.5 97q0 84 -25 154t-109 135q-33 27 -79 50.5t-97 42t-106 30.5t-107 18h2q-10 2 -22 3h-21q-123 0 -235.5 -68t-209.5 -179.5t-177 -255t-137.5 -297t-88 -304t-30.5 -275.5z" />
<glyph unicode="D" horiz-adv-x="1521" d="M-51 309q0 -59 19.5 -91t43.5 -64q59 -59 103.5 -95t103.5 -75h-2q72 -45 152 -45q29 0 55.5 5t48.5 15h-2q264 82 458.5 223.5t323.5 310.5t192.5 352t63.5 349q0 170 -61 303v-2q-47 106 -115.5 180t-150.5 118t-173 63.5t-186 19.5q-158 0 -303 -41t-250 -96l-20 -27 l-287 -1300l2 2q-10 -35 -13 -60t-3 -45zM449 438q72 258 145.5 499t155.5 476q45 14 92 14q59 0 100 -25.5t57 -62.5l-2 2q8 -20 12.5 -43.5t4.5 -56.5q0 -82 -31 -186.5t-98.5 -213t-174.5 -214t-261 -189.5z" />
<glyph unicode="E" horiz-adv-x="1191" d="M-76 297q0 -53 16.5 -90t45.5 -68v2q35 -41 64.5 -72.5t58 -55t62.5 -36t79 -12.5q39 0 96 15l-2 -3q129 29 267.5 59t269.5 58q59 12 81.5 30.5t22.5 65.5q0 53 -19.5 112.5t-43.5 109.5v-2q-18 49 -52 70.5t-90 21.5q-92 0 -175 -12.5t-161 -26.5q4 37 20.5 85t33.5 89 q72 16 145.5 29.5t151.5 29.5h-2q53 8 103 15.5t88 19.5t61.5 33.5t23.5 56.5q0 18 -8 49l2 -2q-10 43 -20.5 85t-34.5 89v-2q-23 51 -58 69.5t-94 18.5h-14q-90 -2 -178 -12q29 78 55 157t51 146q127 18 239.5 31.5t219.5 24.5q68 8 92.5 30.5t24.5 77.5q0 29 -9 55l2 -2 q-6 35 -14 66t-29 78v-2q-18 53 -54 79.5t-101 26.5h-11q-109 -4 -219 -18.5t-215.5 -32.5t-203 -39.5t-179.5 -42.5l-26 -29l-357 -1364q-6 -30 -6 -61z" />
<glyph unicode="F" horiz-adv-x="1177" d="M-96 176q0 -43 17.5 -72.5t66.5 -60.5q49 -23 115.5 -49.5t125.5 -26.5q43 0 74 20.5t39 67.5v-4q35 123 78 276.5t96 317.5q109 25 218.5 45.5t217.5 40.5q59 10 85 29.5t26 66.5q0 14 -6 45l2 -2q-8 37 -20.5 82t-34 84t-57.5 65.5t-91 26.5h-18q-43 0 -86 -3t-86 -7 q29 86 51 163t47 136q125 16 241.5 28.5t225.5 29.5q63 8 86.5 28.5t23.5 75.5q0 45 -14 98.5t-42 99.5t-67.5 76.5t-93.5 30.5h-14q-106 -4 -220 -14t-225.5 -24.5t-217 -34t-193.5 -44.5q-6 -100 -31.5 -236t-60.5 -285.5t-75 -304.5t-77 -290t-64.5 -242.5t-35.5 -164.5 q-6 -37 -6 -68z" />
<glyph unicode="G" horiz-adv-x="1370" d="M-61 551q0 -76 10 -143.5t33 -126.5v2q25 -92 88 -158t145 -108t173 -61t175 -19q104 0 202.5 45t186.5 130t165 206.5t140 275.5q12 33 20.5 58.5t8.5 52.5q0 29 -9 55t-28 55v-2q-25 43 -48 79t-51 61.5t-60.5 39t-75.5 13.5q-78 0 -168 -17.5t-182 -36.5q-6 -2 -15 -2 q-6 0 -10 -2l6 2q-41 -8 -75.5 -15t-57.5 -22l4 9l4 8q45 111 98.5 212t105.5 179t99 125t80 47v2l2 -2q4 -4 5 -15.5t3 -27.5v-2q0 -2 1 -4t1 -4v-80q-2 -12 -3 -22.5t-1 -26.5q0 -129 64.5 -212t222.5 -106q6 0 14.5 -1t14.5 -1q53 0 74.5 21.5t39.5 70.5v4q8 31 16.5 74 t14.5 90t10 95.5t4 89.5v34q-6 90 -33.5 151.5t-92.5 121.5q-41 35 -92.5 63.5t-110 48t-118.5 30.5t-118 11q-59 0 -124.5 -14t-123.5 -55l2 2q-141 -98 -257.5 -248.5t-200.5 -326t-131 -358.5t-47 -345zM420 481q0 72 13 158t42 172q23 -119 77 -179.5t157 -68.5 q-29 -53 -58.5 -98t-59.5 -79t-56.5 -53.5t-51.5 -19.5q-31 0 -47 45t-16 123z" />
<glyph unicode="H" horiz-adv-x="1411" d="M-92 174q0 -47 23.5 -76.5t63.5 -51t90 -39t103 -40.5q20 -6 36 -8t28 -2q31 0 49 11.5t29.5 34t19.5 56t21 78.5q23 96 51.5 202.5t64.5 225.5q61 10 124 19.5t128 19.5q-27 -111 -48 -204t-36 -164v2q-10 -37 -10 -64q0 -45 16.5 -72.5t45 -46t65.5 -34t80 -35.5 q39 -10 72.5 -19.5t62.5 -9.5q43 0 67.5 19.5t28.5 70.5l-2 -6q49 186 109.5 397t123 418t124 397.5t112.5 337.5q12 37 13 66q0 33 -31 67.5t-76 65.5t-98 53.5t-96 34.5h2q-41 14 -74 14q-41 0 -67.5 -22.5t-43.5 -75.5q-53 -154 -109.5 -351.5t-115.5 -400.5l-39 -2h2 q-45 -4 -94 -8l-98 -8q49 160 94 296t80 236q12 37 12 68q0 35 -18.5 60.5t-61.5 54.5l2 -2q-31 23 -75 45t-89 40.5t-85 31t-58 12.5q-41 0 -64.5 -20.5t-42.5 -69.5q-43 -164 -90 -363t-98 -404.5t-103.5 -403t-105.5 -357.5q-14 -41 -14 -74z" />
<glyph unicode="I" horiz-adv-x="622" d="M-111 176q0 -47 24 -80t62.5 -56.5t86 -39.5t96.5 -33q18 -6 32.5 -8t24.5 -2q41 0 58.5 19.5t31.5 64.5q27 102 60.5 230t71.5 266.5t78 282t80 277.5t77 251.5t67 205.5q12 39 13 70q0 35 -17.5 60.5t-58.5 54.5l2 -2q-31 23 -70 44t-81 38.5t-79.5 29t-64.5 11.5 q-41 0 -65.5 -21.5t-45.5 -75.5q-29 -88 -63.5 -213t-71.5 -267t-74.5 -292.5t-70.5 -290t-57.5 -259t-36.5 -199.5q-4 -18 -6.5 -32t-2.5 -34z" />
<glyph unicode="J" horiz-adv-x="1296" d="M-57 459q0 -72 17 -146.5t60 -141.5t114 -120t177 -80q53 -16 98.5 -22t84.5 -6q170 0 302 108.5t237.5 317.5t193.5 516t168 704q4 16 5 27.5t1 28.5q0 39 -42 80.5t-102.5 76.5t-127 56.5t-117.5 21.5q-45 0 -74 -24.5t-41 -79.5q-25 -117 -59.5 -268.5t-75.5 -312.5 t-84 -317.5t-86 -278.5t-84 -198.5t-74 -76.5q-16 4 -19 25.5t-3 64.5q0 20 1 42.5t1 51.5v12q0 186 -230 295q-41 20 -69 21q-49 0 -82 -42t-52.5 -100.5t-28.5 -124t-9 -110.5z" />
<glyph unicode="K" horiz-adv-x="1384" d="M-119 184q0 -43 13.5 -73.5t41 -53t67.5 -39t93 -34.5q37 -12 69 -21.5t58 -9.5q41 0 65.5 21.5t28.5 74.5l-2 -6q25 90 53.5 193.5t61.5 222.5q74 -127 131 -217t106.5 -147.5t94.5 -84t92 -26.5q45 0 111.5 17t117.5 44l-2 -2q39 23 58.5 42t19.5 52q0 16 -32.5 73.5 t-82 139.5t-106.5 177.5t-104 189.5q92 88 189 186t188.5 195.5t166 188.5t121.5 165q51 84 51 147q0 51 -25.5 104.5t-61.5 94.5t-74.5 67.5t-67.5 26.5q-45 0 -90 -57l2 2q-41 -49 -102.5 -115.5t-135 -143.5t-153.5 -160t-160 -165l-25 -22q33 104 62 192t57 160l-2 -2 q10 23 14.5 39t4.5 31q0 33 -31 67.5t-78 65.5t-104.5 54.5t-108.5 37.5h2q-20 6 -35.5 8t-29.5 2q-41 0 -69 -21.5t-48 -70.5q-29 -88 -67 -215t-79 -272.5t-80.5 -300t-75.5 -298t-62.5 -265t-39.5 -201.5v2q-6 -31 -6 -60z" />
<glyph unicode="L" horiz-adv-x="1079" d="M-111 285q0 -47 16.5 -82t45.5 -64l41 -41h-2q25 -27 45 -46t43 -40v2q23 -20 49.5 -34.5t73.5 -14.5q23 0 48 3t56 14h-2q123 31 259 57.5t265 56.5l2 2q59 16 82 32.5t23 53.5q0 45 -17.5 111.5t-50.5 120.5l2 -2q-25 49 -56.5 69.5t-82.5 20.5q-90 0 -165 -12.5 t-152 -24.5q43 145 90 298t94 300t94 281.5t88 244.5l-2 -2q10 23 14.5 38t4.5 32q0 37 -40 77t-97.5 74.5t-122 57t-113.5 22.5q-74 0 -115 -92q-35 -96 -74.5 -216t-79.5 -252t-79 -270t-73 -267t-60.5 -244t-42.5 -203l2 4q-6 -20 -8.5 -35.5t-2.5 -29.5z" />
<glyph unicode="M" horiz-adv-x="1947" d="M-117 172q0 -45 32 -85t81 -70.5t106.5 -48t108.5 -17.5q41 0 64.5 24.5t39.5 77.5q18 80 42 176.5t51.5 203t59.5 219t67 227.5q6 -150 17 -288t28 -255q10 -70 32.5 -110t56 -62.5t79 -34.5t100.5 -25q20 -6 49 -6q25 0 39 5.5t24.5 16.5t20.5 28.5t23 41.5 q27 57 66.5 134t86.5 163t98.5 178.5t102.5 182.5q-25 -92 -48.5 -182.5t-42 -171t-32.5 -148t-23 -115.5v2q-6 -29 -6 -61q0 -84 86 -135h-2q20 -14 53 -28.5t68 -26t67.5 -18.5t55.5 -7q51 0 70.5 23.5t33.5 64.5q20 82 52 201t71 256t82 285.5t84 289t79 265t69 217.5v-3 q10 23 13 42.5t3 35.5q0 51 -47 90t-112.5 68t-139.5 48.5t-125 31.5h2q-29 10 -53.5 14t-46.5 4q-43 0 -77 -15t-64.5 -49t-62.5 -85t-73 -123v2q-39 -61 -81 -131t-84 -142.5t-82.5 -145.5t-77.5 -140q-4 119 -9.5 198.5t-8.5 132t-5 81t-2 47.5q0 16 2 26q-4 45 -8 81 t-18.5 63.5t-43 50t-79.5 43.5h2q-68 29 -155 56.5t-204 27.5q-53 0 -86 -25.5t-57 -91.5q-31 -88 -69 -211t-77.5 -263t-79.5 -288.5t-75 -288t-62.5 -261.5t-42.5 -210v2q-6 -28 -6 -59z" />
<glyph unicode="N" horiz-adv-x="1464" d="M-111 184q0 -45 17.5 -73.5t56.5 -53.5l-2 2q39 -31 86 -47t94 -30l23 -7l36 -7q15 -3 27 -3q39 0 57.5 20.5t32.5 61.5q16 70 40 160t51.5 190.5t58.5 210t61 219.5q20 -135 42 -264t50.5 -234.5t70.5 -181t106 -106.5q59 -23 123.5 -45.5t130.5 -22.5q100 0 120 99 l-2 -2q27 109 61 234.5t69.5 260.5t73.5 272.5t76 268.5t72.5 250t65.5 215q8 20 11.5 38.5t3.5 35.5q0 47 -33 81.5t-78 60t-92 42t-78 24.5q-18 4 -32.5 7.5t-24.5 3.5q-90 0 -123 -101q-53 -162 -109.5 -354t-109.5 -399q-8 82 -16.5 162.5t-14.5 152.5t-11.5 131.5 t-7.5 99.5q-6 84 -31.5 128.5t-95.5 72.5h3q-35 18 -78 36.5t-88 34t-86 26t-70 10.5q-92 0 -131 -103q-35 -98 -74 -231t-80 -280.5t-79.5 -298t-72.5 -285t-58.5 -243t-34.5 -167.5l2 2q-9 -41 -9 -74z" />
<glyph unicode="O" horiz-adv-x="1435" d="M-2 588q0 -299 138 -447.5t411 -175.5h-2q45 -6 90 -6q135 0 245.5 66.5t197.5 175t151.5 249t106.5 288t62.5 290.5t20.5 258q0 70 -6 131.5t-22.5 116.5t-47 103.5t-81.5 91.5q-33 27 -82.5 53t-105.5 47.5t-116.5 34t-115.5 12.5q-74 0 -154 -26.5t-141 -71.5 q-129 -102 -231.5 -243.5t-173 -301.5t-107.5 -325.5t-37 -319.5zM483 498q0 98 24.5 218t65.5 230q33 88 78 182.5t93.5 171t93.5 126t77 49.5h3q16 -6 23 -45t7 -101q0 -113 -20.5 -231.5t-54 -229t-76.5 -209t-88 -171t-87 -115.5t-75 -43q-35 0 -49.5 48t-14.5 120z" />
<glyph unicode="P" d="M-49 164q0 -51 23.5 -84t61.5 -55.5t87 -38.5l98 -33q27 -6 53 -6q43 0 63.5 20.5t39.5 61.5q29 117 62.5 234.5t68.5 240.5q123 37 247 87t237.5 109.5t210.5 128t169 140.5q74 78 128 163t54 193q0 72 -19 136.5t-49 120.5t-66 104.5t-68 85.5q-53 57 -125 80.5 t-158 23.5q-88 0 -184.5 -20.5t-193.5 -53.5t-188 -72.5t-169 -78.5q-27 -14 -57.5 -109.5t-62.5 -235t-64.5 -303t-64.5 -316t-61.5 -272.5t-56.5 -171q-16 -49 -16 -80zM664 1001q35 104 66.5 197.5t62.5 179.5q68 29 131 41.5t110 12.5q37 0 54.5 -3.5t22.5 -8.5 q4 -4 4 -7q0 -2 -1.5 -6.5t-1.5 -5.5q0 -39 -29.5 -89t-86 -104.5t-140 -109t-192.5 -97.5z" />
<glyph unicode="Q" horiz-adv-x="1431" d="M-2 588q0 -313 158.5 -470t470.5 -157q49 0 97 7t91 24q6 -2 14 -15q59 -61 144 -61q57 0 108.5 19.5t102.5 50.5l-2 -2q68 33 67 90q0 14 -9 33.5t-21.5 39t-26.5 39t-25 35.5q-10 16 -18 30.5t-19 27.5q74 109 128.5 234.5t89 257.5t52 263t17.5 248q0 111 -19.5 207 t-75.5 173t-157.5 131t-265.5 81q-12 2 -26.5 3t-30.5 1q-74 0 -154 -26.5t-141 -71.5q-129 -102 -231.5 -243.5t-173 -301.5t-107.5 -326.5t-37 -320.5zM485 498q0 106 31 245l-2 -2q16 74 45 157t64.5 165t74.5 156.5t79 132t77 91.5t66 34q14 0 21 -45.5t7 -94.5 q0 -90 -15 -191.5t-42 -200.5t-60.5 -193.5t-72.5 -169.5q-47 -10 -92 -23.5t-79 -32t-54.5 -43t-20.5 -57.5q0 -25 9 -41t26 -43l4 -12h-4q-2 0 -15 4l3 -2q-27 12 -38.5 56t-11.5 110z" />
<glyph unicode="R" horiz-adv-x="1511" d="M-43 168q0 -55 20.5 -88t55.5 -52.5t80 -31.5t94 -27q27 -8 51 -8q41 0 62.5 20.5t33.5 61.5q31 111 64 219.5t67 224.5q47 -66 100.5 -129t108 -121.5t105.5 -107.5t92 -84q49 -35 94 -49t84 -14q27 0 49.5 5t46.5 11l-2 -2q16 2 46 13t59.5 28.5t51 43t21.5 56.5 q0 45 -45 88v-2q-43 43 -92 97.5t-99 114t-98.5 119.5t-88.5 116q217 106 373.5 226t228.5 261v-2q16 35 25 71t9 81q0 78 -18 145.5t-48 124.5t-66 105.5t-70 89.5q-57 66 -136 92t-165 26q-74 0 -155 -16t-164 -42t-165 -59.5t-157 -68.5q-41 -18 -86 -116.5t-89.5 -240 t-86.5 -309.5t-77.5 -324.5t-64.5 -286.5t-43 -196q-6 -34 -6 -63zM662 1016q4 14 8 26l8 25v-2q31 90 58.5 171t56.5 153q66 29 125 40t106 11q82 0 92 -27v-2q0 -31 -31.5 -80t-90 -104.5t-143.5 -110.5t-189 -100z" />
<glyph unicode="S" horiz-adv-x="1247" d="M-158 430q0 -47 86 -149q141 -176 293 -252t320 -76h26q133 2 230.5 38t165 88t109.5 111.5t67 110.5l-2 -2q33 63 32 121q0 86 -55 154.5t-137 133t-173 131t-163 144.5q-23 23 -32 49.5t-9 52.5q0 55 27.5 113.5t66.5 111t83 91.5t79 57l2 2q2 0 4 2q-6 -35 -19.5 -82 t-26.5 -95t-23.5 -89t-10.5 -61q0 -172 256 -271q33 -12 64 -12q37 0 59.5 18.5t42.5 59.5q25 47 48.5 109.5t44 129t37 131t24.5 117.5v49q0 59 -16.5 122t-81.5 128q-39 39 -93.5 74t-115 62.5t-121 44t-111.5 16.5q-74 0 -134 -20.5t-95 -49.5l2 2q-72 -41 -144.5 -103.5 t-137 -134t-115 -148.5t-74.5 -146l2 2q-49 -115 -49 -219t41 -194.5t112 -158.5v2q57 -59 132 -115.5t142.5 -105.5t116 -87t52.5 -62q-27 -20 -72 -21q-131 0 -346 156q-37 29 -86 42t-103 13q-37 0 -75.5 -7t-75.5 -23l-4 -3q-29 -16 -45.5 -40.5t-20.5 -53.5v-8z" />
<glyph unicode="T" horiz-adv-x="1370" d="M152 1694q0 -27 8 -52v3l6 -19q12 -37 31.5 -82t45 -86t59.5 -68.5t77 -27.5q39 0 82 10t102 21q-41 -135 -85 -294t-83 -315.5t-70.5 -300t-50.5 -245.5v2q-10 -41 -10 -66q0 -78 52.5 -116t134.5 -66h-2q43 -16 86 -28.5t71 -12.5q37 0 61.5 18.5t34.5 65.5l-2 -2 q43 164 93.5 346t105.5 367.5t110.5 368.5t106.5 349q84 8 161 14.5t148 16.5q61 4 84 23.5t23 60.5q0 29 -8 61.5t-22.5 66.5t-32 64.5t-35.5 55.5q-25 29 -58 44t-98 15q-109 -4 -244 -14t-276.5 -24.5t-277.5 -33t-244 -38.5q-41 -8 -62.5 -25.5t-21.5 -56.5z" />
<glyph unicode="U" horiz-adv-x="1402" d="M-16 510q0 -143 39 -246q66 -162 202.5 -232.5t339.5 -70.5q78 0 144.5 16.5t132.5 51.5q111 70 203 211t170.5 340.5t149.5 451.5t140 543q6 18 8.5 33.5t2.5 29.5q0 35 -16.5 60.5t-61.5 54.5q-33 18 -71 38.5t-76 37t-73.5 28t-66.5 11.5q-45 0 -77 -22.5t-42 -80.5 l2 4q-27 -113 -64.5 -262t-82.5 -309t-95.5 -314.5t-100.5 -277.5t-100 -197.5t-95 -74.5q-20 0 -28.5 28.5t-8.5 75.5q0 90 29.5 222.5t75.5 278.5t98.5 290.5t99.5 261.5l-2 -2q18 45 18 84q0 53 -36.5 102t-90 87t-114 60.5t-109.5 22.5q-41 0 -66.5 -21.5t-46.5 -70.5 q-59 -145 -117.5 -308t-106.5 -327t-77.5 -320.5t-29.5 -287.5z" />
<glyph unicode="V" horiz-adv-x="1443" d="M174 1159q0 -229 9.5 -441t27.5 -401q4 -31 14.5 -66.5t29.5 -70.5t47 -66.5t69 -56.5t87 -47t92 -40.5t89 -30t78 -11.5q47 0 80.5 24.5t64.5 76.5q51 96 116.5 223t134.5 268.5t138.5 288.5t131 284.5t110.5 255t78 201.5l-2 -2q10 27 15 48.5t5 39.5q0 45 -32.5 89 t-78.5 79t-99.5 56.5t-92.5 21.5q-37 0 -64.5 -17.5t-47.5 -60.5q-123 -268 -250 -550.5t-265 -563.5q-4 221 -5 423t-3 362v145q-2 76 -39 124t-102 77h2q-51 20 -97 28.5t-106 8.5q-39 0 -62.5 -6.5t-35.5 -21.5t-17.5 -40t-7.5 -59q-12 -296 -12 -572z" />
<glyph unicode="W" horiz-adv-x="2025" d="M31 170q0 -63 30.5 -101t79.5 -60.5t109.5 -37t122.5 -28.5q27 -6 55 -6q37 0 66.5 18t58.5 65q25 47 61.5 116t79.5 149t91.5 167t97.5 173v-72q0 -78 2 -152.5t6 -134.5v-63q4 -61 28.5 -111.5t90.5 -75.5q33 -10 58 -18l51 -16q26 -8 53.5 -16.5t66.5 -16.5l-2 2 q23 -6 40 -8t34 -2q94 0 137 84q43 96 99.5 219t119 259t129 277.5t132 275.5t126 252.5t111.5 211.5q27 53 26 108q0 53 -38.5 99.5t-90 80t-102.5 52t-78 18.5q-33 0 -58.5 -19.5t-51.5 -66.5q-27 -53 -76 -147.5t-109.5 -214t-129 -257t-134.5 -274.5q35 295 57.5 451.5 t22.5 160.5q0 45 -16.5 70t-69.5 47h2q-23 12 -41 20.5t-38.5 14.5t-44.5 12t-58 15q-33 8 -56 8q-43 0 -69.5 -17.5t-53.5 -58.5h3q-31 -43 -77 -125l-103.5 -184.5t-119 -219t-122.5 -231.5q23 145 47 281.5t41 240.5q10 47 16 85t10 63l-2 -2q12 39 13 82q0 57 -26 98 t-68 67.5t-98 44t-118 29.5q-25 6 -51 7q-49 0 -73.5 -28t-36.5 -89q-18 -106 -38 -237.5t-38.5 -274t-33.5 -288.5t-26.5 -285.5t-18.5 -264.5t-7 -221z" />
<glyph unicode="X" horiz-adv-x="1474" d="M-147 217q0 -47 33.5 -97t79.5 -91t91 -69t68 -28q33 0 64.5 22.5t61.5 57.5t60.5 78t65.5 84q51 66 104.5 133.5t112.5 138.5q57 -166 91 -259t63.5 -140t62.5 -61.5t88 -22.5q57 -6 119 -6q92 0 150.5 17.5t58.5 76.5q0 18 -5 31.5t-10 30.5v-2q-53 154 -114.5 342 t-126.5 399q154 176 288 331.5t238 278.5q27 31 42 64t15 67q0 33 -25.5 84.5t-65.5 100.5t-90 83.5t-101 34.5q-37 0 -89.5 -43t-114.5 -112.5t-132 -157.5t-143 -178q-25 78 -47.5 150.5t-38.5 138.5q-18 45 -40 74.5t-54.5 47t-82 24.5t-122.5 7h-52q-92 0 -130 -19.5 t-38 -78.5q0 -10 2.5 -26.5t6.5 -34.5v2q16 -59 39.5 -137t51 -169.5t59.5 -191.5t67 -201q-78 -90 -151 -181t-138.5 -177t-122.5 -164t-102 -141v2q-43 -61 -47 -107v-6z" />
<glyph unicode="Y" horiz-adv-x="1339" d="M141 1786q0 -27 6 -51q18 -104 41 -229.5t50.5 -259.5t56.5 -270t59 -261q-23 -84 -42 -163t-33 -151l2 2q-16 -68 -34 -132t-18 -113t26 -83t66.5 -58.5t90 -42t98.5 -33.5q37 -12 61 -13q41 0 59.5 20.5t33.5 61.5q31 133 67.5 268.5t83.5 276.5q94 135 192.5 279.5 t186.5 277.5t155.5 244.5t102.5 185.5q16 31 25.5 56.5t9.5 52.5q0 25 -25.5 66.5t-66.5 81.5t-91.5 68.5t-101.5 28.5q-31 0 -56.5 -14t-41.5 -53q-92 -152 -187.5 -303.5t-195.5 -302.5q-31 147 -61.5 278t-55.5 230q-10 31 -20.5 54t-25.5 39.5t-37.5 28t-57.5 19.5l2 -2 q-31 8 -56.5 10t-50.5 2q-113 0 -165 -18.5t-52 -77.5z" />
<glyph unicode="Z" horiz-adv-x="1165" d="M-143 248q0 -41 18.5 -73t38.5 -56l14 -15q39 -43 68 -74.5t56.5 -54t57 -34t72.5 -11.5q33 0 87.5 10.5t118 26t131 31.5t128.5 29q49 10 96 20l95 21q113 8 112 96q0 8 -1 17t-5 26l2 -4q-6 37 -17 83t-36 86t-62.5 67.5t-95.5 27.5h-18q-10 0 -21 -2h2 q-53 -8 -103 -15.5t-103 -19.5q199 254 402.5 505t395.5 482q57 66 58 131q0 33 -13 70l2 -2q-6 31 -18 75t-33 89q-23 53 -52.5 73.5t-88.5 20.5h-17q-98 -4 -210.5 -12.5t-225 -20.5t-220 -28.5t-196.5 -36.5q-39 -12 -58 -29.5t-19 -54.5q0 -27 8 -52v2 q12 -37 32.5 -81.5t39.5 -79.5l14 -33q33 -45 71.5 -63.5t81.5 -18.5q23 0 85.5 11.5t146.5 23.5q-117 -139 -234.5 -291t-224 -296t-193.5 -269t-143 -211q-26 -41 -26 -86z" />
<glyph unicode="[" horiz-adv-x="927" d="M-25 236q0 -45 11.5 -77t33.5 -63l39 -39q47 -51 93.5 -84.5t115.5 -33.5q37 0 84 7t95.5 16t94.5 20.5t79 17.5q106 2 106 86q0 20 -8 45v2q-14 43 -21.5 82t-29.5 82l2 -2q-43 86 -146 86h-18q-20 0 -42 -3t-40 -5q33 125 74 265t85 281.5t89 277.5t88 257 q51 8 108.5 10t105.5 11.5t78.5 30t30.5 63.5q0 20 -8 43v-6q-8 47 -18 86t-35 84l2 -7q-18 49 -52 77t-93 28h-11q-78 -2 -166 -6t-172 -17h2q-115 -12 -147 -110q-53 -147 -110.5 -334.5t-111.5 -382.5t-101.5 -380t-77.5 -333h2q-6 -27 -8.5 -44t-2.5 -31z" />
<glyph unicode="\" horiz-adv-x="1056" d="M176 1772q0 -4 2 -15v4q10 -94 31.5 -232t50.5 -299t62.5 -331t67.5 -326.5t64.5 -286.5t53.5 -210q25 -66 51.5 -100.5t87.5 -45.5h-2q39 -6 92 -6q23 0 43.5 1t38.5 3h-2q57 6 82 27.5t25 62.5q0 16 -9 43l3 -2q-23 102 -48.5 241.5t-53.5 297.5t-55.5 322.5t-52 319.5 t-43 288t-28.5 225q-6 33 -14.5 55.5t-21.5 38t-35.5 24.5t-57.5 19v2q-41 10 -79 12.5t-77 2.5h-53q-63 -2 -93 -34t-30 -87v-14z" />
<glyph unicode="]" horiz-adv-x="970" d="M-113 221q0 -18 11.5 -48t26 -59.5t28.5 -55t20 -35.5q27 -33 52.5 -51.5t72.5 -18.5q78 0 162 17.5t160 29.5q82 4 109.5 32.5t41.5 76.5q39 141 91.5 325t109.5 377t115.5 377t111.5 325q12 43 13 74q0 49 -41 105l2 -2q-23 35 -45.5 64.5t-46.5 53.5l2 -2 q-29 35 -57.5 51.5t-75.5 16.5h-21q-10 0 -18 -2h4q-104 -8 -196.5 -16.5t-164.5 -22.5q-59 -10 -81.5 -42t-22.5 -77q0 -43 18.5 -91t40.5 -93v2q20 -49 47 -68.5t80 -19.5q37 0 78 6q-41 -121 -84 -260t-86 -281.5t-83 -281t-71 -258.5q-47 -8 -99 -17.5t-98 -25t-76 -41 t-30 -64.5z" />
<glyph unicode="^" horiz-adv-x="1359" d="M139 1155q0 -41 27 -80l-2 2q18 -33 40.5 -63.5t46 -55t47.5 -39t42 -14.5q27 0 72 39t98 97.5t112.5 127t114.5 125.5q14 -100 35 -185t41 -165q35 -92 127 -117h-2q51 -12 91 -15t77 -5h14q47 0 69.5 16.5t22.5 59.5q0 10 -1 17t-3 15q-12 66 -28.5 151t-31.5 176 t-28.5 184.5t-19.5 177.5q-4 43 -16.5 74.5t-36 59t-60.5 56.5t-90 66q-39 25 -76 24q-23 0 -48 -10t-54 -39h2q-78 -68 -157 -148.5t-152.5 -161.5t-136 -155t-103.5 -129q-33 -39 -33 -86z" />
<glyph unicode="_" horiz-adv-x="1345" d="M-106 -356q0 -70 106 -70h1413q41 0 67.5 11.5t43 29.5t27 40.5t18.5 45.5l12 31v-2q10 20 17.5 40.5t7.5 36.5q0 31 -21.5 49.5t-77.5 18.5h-1413q-61 0 -95 -18.5t-56 -65.5l2 2q-10 -23 -17.5 -42t-15.5 -38l-12 -35q-4 -12 -5 -19t-1 -15z" />
<glyph unicode="`" horiz-adv-x="1181" d="M453 2093l14 -39q47 -29 112.5 -65.5t142.5 -73.5t161 -71t164 -60q31 -10 59 -10q33 0 67.5 11t75.5 30l-51 49l6 12q6 12 14.5 29.5t18.5 37t20 33.5q-133 55 -266 123t-231 139q-33 27 -82 27q-53 0 -127 -33l4 2q-47 -16 -68.5 -52t-33.5 -89zM1257 1976l9 -4 q39 -25 45 -63q-2 51 -8.5 71.5t-16.5 20.5q-11 0 -29 -25z" />
<glyph unicode="{" horiz-adv-x="1036" d="M33 991q0 -31 13 -76t33.5 -91t46.5 -85t50 -53q-16 -61 -33.5 -123.5t-34 -121t-26.5 -112t-10 -98.5t15 -76.5t44 -62.5l35 -35l53 -53q23 -23 45.5 -38t48 -22t60.5 -7q12 0 29.5 2t41.5 8v-2q72 16 147 29.5t140 25.5q109 2 109 88q0 18 -9 43l3 -2q-8 43 -20.5 82 t-37.5 86l2 -2q-43 86 -141 86h-19q-20 0 -41.5 -3t-39.5 -5q33 125 72.5 265t82.5 281.5t88 277.5t88 257q53 4 107.5 10t107.5 13q59 8 85 24.5t26 63.5q0 18 -8 45l2 -4q-8 47 -17.5 86t-33.5 84l2 -7q-18 49 -57.5 77t-92.5 28h-12q-74 -2 -163 -6t-171 -17h2 q-68 -6 -100.5 -33.5t-50.5 -76.5q-45 -129 -93.5 -286t-97.5 -329q-53 0 -104.5 -12t-85.5 -22h2q-82 -21 -82 -101z" />
<glyph unicode="|" horiz-adv-x="1077" d="M74 39q0 -41 17.5 -69.5t49 -51t75.5 -42t97 -38.5q27 -6 52 -6q43 0 61 21.5t33 68.5q23 100 62.5 247.5t86.5 317.5t99.5 351.5t101.5 348.5t92 307t72 228l-2 -2q8 23 13 41.5t5 32.5q0 35 -18.5 59.5t-59.5 53.5l2 -2q-31 25 -67.5 43t-66 29.5t-46 16.5t-10.5 3 q-20 8 -36.5 13t-31.5 5q-72 0 -110 -98q-29 -90 -70 -237.5t-87 -321.5t-94 -362.5t-90 -359.5t-75 -311.5t-49 -220.5l2 2q-4 -18 -6 -35.5t-2 -31.5z" />
<glyph unicode="}" horiz-adv-x="1153" d="M-111 231q0 -23 10.5 -52t25 -60t28.5 -57.5t24 -43.5q25 -31 51.5 -48t71.5 -17q72 0 158 17.5t158 29.5q82 2 112.5 31.5t42.5 77.5q29 117 69 256t85 297q51 10 104.5 13t96.5 12t70.5 29.5t27.5 65.5q0 25 -10 54.5t-19 58.5q-8 29 -15 53.5t-17 52.5l2 -2 q-31 78 -105 101q39 113 73 217t66 196q8 23 10.5 40.5t2.5 33.5q0 27 -8.5 51.5t-30.5 53.5l2 -2q-43 63 -92 116q-29 35 -57.5 51.5t-73.5 16.5h-21q-10 0 -20 -2h4q-88 -6 -173 -10t-151.5 -18.5t-107.5 -42t-41 -79.5q0 -4 2 -14t6 -27l14 -39v3q14 -51 28.5 -89t33 -63 t45 -37t65.5 -12q37 0 78 6q-39 -121 -83 -260t-87 -281.5t-83 -281t-71 -258.5q-59 -10 -113 -19.5t-95 -25t-67 -38t-26 -55.5z" />
<glyph unicode="~" horiz-adv-x="1544" d="M86 1180q0 -109 168 -109q57 0 101 14.5t94 47.5q29 18 67.5 41.5t67.5 23.5q27 0 66.5 -5t79.5 -14.5t75 -21.5t53 -24q47 -35 125 -51.5t180 -16.5q43 0 98.5 16.5t114 43t113.5 60.5t100 70.5t75 73.5t34 68v6q0 31 -20.5 54.5t-55.5 39.5l2 -2q-55 27 -121 27 q-82 0 -151 -49l-11 -9q-10 -10 -28.5 -24.5t-38 -29.5t-36.5 -26.5t-26 -13.5q-39 4 -76.5 15.5t-74.5 26.5t-75 30.5t-75 27.5h2q-129 43 -247 43q-53 0 -134 -23.5t-162 -58t-148.5 -74.5t-92.5 -73q-41 -53 -43 -92v-12z" />
<glyph unicode="&#xa3;" horiz-adv-x="1353" d="M-29 827q0 -31 26 -91t62 -113h-2q23 -35 50.5 -51.5t68.5 -16.5h29q-10 -57 -22.5 -110.5t-22.5 -96.5v2q-6 -20 -8 -35.5t-2 -29.5q0 -47 16 -82t45 -64l43 -41h-2q25 -27 45 -46t43 -40v2q23 -20 49.5 -34.5t75.5 -14.5q23 0 48.5 3t57.5 14h-2q127 31 263.5 58.5 t267.5 55.5q59 16 82.5 32.5t23.5 55.5q0 45 -18.5 111.5t-48.5 120.5l2 -2q-25 49 -56.5 69.5t-85.5 20.5q-92 0 -169.5 -12.5t-153.5 -24.5q14 41 26.5 79t22.5 79q78 6 155.5 11t159.5 9q53 2 78 17.5t25 60.5q0 18 -6 43v-2q-10 35 -22.5 71.5t-37.5 75.5l2 -6 q-37 90 -147 90h-90l26 86q66 0 131.5 -3t133.5 -3q47 0 66.5 18.5t19.5 61.5v19q0 8 -2 14v-2q-6 35 -15.5 62.5t-21.5 62.5v-2q-33 125 -189 125q16 41 30.5 79.5t27.5 77.5l-2 -2q10 23 14 38t4 32q0 39 -42 80t-101.5 74.5t-124 55t-109.5 21.5t-79 -42t-60.5 -107.5 t-50 -144t-47.5 -154.5q-63 -4 -134 -5t-129.5 -10.5t-96.5 -34t-38 -75.5q0 -39 21.5 -92.5t50.5 -104.5h-2q23 -45 50.5 -61.5t74.5 -16.5h20q10 0 21 2q8 2 14 3q8 0 19 2h14q-8 -23 -13.5 -44.5t-13.5 -43.5q-53 -6 -112.5 -10.5t-109.5 -16.5t-83 -37t-33 -70z" />
<glyph unicode="&#x2013;" horiz-adv-x="1728" d="M29 813q0 -27 26.5 -69t71.5 -82.5t101.5 -70.5t117.5 -30q18 0 31.5 1t30.5 1q240 31 508 46.5t522 23.5q78 2 115.5 17.5t37.5 56.5q0 20 -8 34q-4 18 -23.5 61.5t-48.5 80.5l2 -2q-57 78 -213 77q-141 0 -297.5 -5t-308 -12t-286 -17.5t-232.5 -20.5 q-147 -12 -147 -90z" />
<glyph unicode="&#x2014;" horiz-adv-x="2682" d="M31 813q0 -31 28.5 -75t74.5 -84t103.5 -67.5t116.5 -27.5q16 0 30.5 1t31.5 3q61 8 169.5 14.5t248 11.5t301 9t328.5 8t331 7t306.5 5.5t256 4.5t180.5 4q78 2 119 18.5t41 56.5q0 23 -8 33l-12 31q-10 27 -24.5 54.5t-39.5 56.5l2 -3q-59 80 -217 80q-72 0 -193.5 -1 t-276 -3t-330 -5t-353.5 -6t-348 -7t-313.5 -9t-250 -10.5t-155.5 -9.5q-147 -12 -147 -90z" />
<glyph unicode="&#x2018;" horiz-adv-x="733" d="M236 1858q0 -45 12 -113t32.5 -138.5t44 -136t46.5 -104.5v2q39 -88 110 -117l-2 2q33 -16 79 -26t81 -10q80 0 80 75q0 16 -8 41q-14 55 -33 137t-38 170.5t-36.5 173t-30.5 148.5q-18 90 -96 90q-25 0 -49 -8l-39 -19l2 3q-96 -41 -125.5 -82t-29.5 -88z" />
<glyph unicode="&#x2019;" horiz-adv-x="653" d="M238 1323q0 -78 92 -78h4q49 0 88 5t69.5 18.5t55 37t47.5 62.5h2q20 39 45 102.5t46.5 133t36.5 135t15 108.5q0 33 -22.5 71t-59 70.5t-83 54t-91.5 21.5q-33 0 -53 -19.5t-31 -66.5l2 2q-14 -63 -33.5 -147t-41 -170t-43 -165t-37.5 -132q-4 -14 -6 -23.5t-2 -19.5z " />
<glyph unicode="&#x201c;" horiz-adv-x="1177" d="M172 1874q0 -43 21.5 -108.5t52 -136t67.5 -136.5t68 -107q55 -78 124.5 -98t158.5 -22h12q86 0 86 71q0 33 -28.5 102.5t-57.5 147.5q-41 109 -85 221.5t-67 194.5q-29 84 -98 84q-35 0 -78 -18.5t-83 -48t-66.5 -68.5t-26.5 -78zM666 1868q0 -16 2 -28.5t6 -29.5v5 q4 -49 18.5 -112t35 -125t44 -118.5t45.5 -91.5v2q27 -45 52.5 -71.5t66.5 -43.5l-2 2q37 -16 85 -26t89 -10q86 0 86 73q0 10 -3 20.5t-5 22.5q-16 55 -37 136t-41.5 169.5t-39.5 174.5t-32 151q-18 90 -104 90q-45 0 -92 -17.5t-86 -45t-63.5 -61t-24.5 -66.5z" />
<glyph unicode="&#x201d;" horiz-adv-x="1165" d="M256 1323q0 -78 98 -78h6q57 0 100.5 6t75 19.5t56 38t47.5 61.5h2q23 39 49.5 101.5t50 132t40 135t16.5 110.5q0 33 -17.5 64t-46 55.5t-66.5 45t-77 36.5v-2q-23 10 -38 14t-30 4q-35 0 -58.5 -19t-33.5 -67l2 2q-14 -63 -35.5 -147t-45 -170t-46 -166t-39.5 -133 q-10 -27 -10 -43zM688 1321q0 -84 168 -84q18 0 37.5 1t40.5 7h-2q47 8 77.5 29.5t63.5 64.5l-2 -2q33 39 72 105.5t71.5 139.5t55 138.5t22.5 102.5v4q-2 47 -49 94l2 -2q-25 27 -60.5 51.5t-70.5 44.5h2q-41 25 -78 25q-70 0 -94 -76q-20 -61 -52 -144t-66.5 -166 t-67.5 -157t-56 -121v2q-14 -28 -14 -57z" />
<glyph unicode="&#x2026;" horiz-adv-x="2373" d="M-47 150q0 -92 66.5 -146.5t166.5 -54.5h15q86 0 141 32.5t86 72.5t42 76t13 42q0 4 1 8t1 8v13q0 31 -14 65.5t-46 64t-81 50t-119 20.5q-55 0 -101 -17t-81 -46t-57.5 -67t-28.5 -78q-2 -10 -3 -20.5t-1 -22.5zM784 154q0 -47 19.5 -85t52.5 -65t76 -41t92 -14h14 q86 0 141.5 32.5t86 72.5t42 76t13.5 42q0 4 1 8t1 8v13q0 31 -14.5 65.5t-46 64t-80.5 50t-119 20.5q-55 0 -103.5 -17t-84 -46t-59 -67t-30.5 -78q-2 -8 -2 -19v-20zM1622 154q0 -47 19.5 -85t52 -65t75.5 -41t93 -14h14q86 0 140.5 31.5t85 71.5t43 76t14.5 44q0 4 1 8 t1 8v13q0 31 -14.5 65.5t-46.5 64t-81 50t-118 20.5q-55 0 -103.5 -17t-84.5 -46t-59.5 -67t-29.5 -78q-2 -8 -2 -19v-20z" />
<glyph unicode="&#xe000;" horiz-adv-x="500" d="M0 0v0v0v0v0z" />
</font>
</defs>
</svg>
